<?xml version="1.0" encoding="UTF-8" standalone="no"?>
<!-- Created with Inkscape (http://www.inkscape.org/) -->

<svg
   xmlns:dc="http://purl.org/dc/elements/1.1/"
   xmlns:cc="http://creativecommons.org/ns#"
   xmlns:rdf="http://www.w3.org/1999/02/22-rdf-syntax-ns#"
   xmlns:svg="http://www.w3.org/2000/svg"
   xmlns="http://www.w3.org/2000/svg"
   xmlns:sodipodi="http://sodipodi.sourceforge.net/DTD/sodipodi-0.dtd"
   xmlns:inkscape="http://www.inkscape.org/namespaces/inkscape"
   width="240"
   height="240"
   id="svg3647"
   version="1.1"
   inkscape:version="0.48.2 r9819"
   sodipodi:docname="sprite.svg"
   inkscape:export-filename="./sprite.png"
   inkscape:export-xdpi="90"
   inkscape:export-ydpi="90">
  <defs
     id="defs3649" />
  <sodipodi:namedview
     id="base"
     pagecolor="#ffffff"
     bordercolor="#666666"
     borderopacity="1.0"
     inkscape:pageopacity="0.0"
     inkscape:pageshadow="2"
     inkscape:zoom="1.0664063"
     inkscape:cx="82.355614"
     inkscape:cy="109.67636"
     inkscape:document-units="px"
     inkscape:current-layer="layer1"
     showgrid="false"
     inkscape:window-width="1249"
     inkscape:window-height="744"
     inkscape:window-x="48"
     inkscape:window-y="0"
     inkscape:window-maximized="0">
    <inkscape:grid
       type="xygrid"
       id="grid7392"
       empspacing="5"
       visible="true"
       enabled="true"
       snapvisiblegridlinesonly="true"
       color="#000000"
       opacity="0.0627451"
       empcolor="#000000"
       empopacity="0.1254902" />
  </sodipodi:namedview>
  <metadata
     id="metadata3652">
    <rdf:RDF>
      <cc:Work
         rdf:about="">
        <dc:format>image/svg+xml</dc:format>
        <dc:type
           rdf:resource="http://purl.org/dc/dcmitype/StillImage" />
        <dc:title />
      </cc:Work>
    </rdf:RDF>
  </metadata>
  <g
     inkscape:label="Layer 1"
     inkscape:groupmode="layer"
     id="layer1"
     transform="translate(0,-812.36218)">
    <g
       inkscape:export-ydpi="90"
       inkscape:export-xdpi="90"
       inkscape:export-filename="/Users/tristen/Desktop/city.png"
       transform="matrix(0.68365465,0,0,0.68365465,-401.54604,-341.64687)"
       id="g10482"
       style="display:inline">
      <path
         style="fill:#296093;fill-opacity:1;stroke:none"
         inkscape:connector-curvature="0"
         d="m 645.08742,1713 c 0,21.9719 0.0704,25 0.52817,25 0.45775,0 0.52817,-3.0281 0.52817,-25 0,-21.9718 -0.0704,-25 -0.52817,-25 -0.45774,0 -0.52817,3.0282 -0.52817,25 z"
         id="path10393" />
      <path
         style="fill:#296093;fill-opacity:1;stroke:none"
         inkscape:connector-curvature="0"
         d="m 607.93953,1688.8803 c -4.33098,0.9507 -7.88732,2.6761 -11.23239,5.493 -10.24648,8.5563 -12.35916,23.3098 -4.92958,34.5422 1.90141,2.8522 5.73944,6.4437 8.30986,7.7817 1.02113,0.5282 1.47887,0.7043 0.98592,0.3521 -5.73944,-4.1549 -9.22536,-8.9788 -10.80986,-14.8943 -0.80986,-3.0634 -0.80986,-8.9085 0,-11.9719 2.28873,-8.6267 9.19014,-15.5281 17.85211,-17.8169 3.06338,-0.8098 8.59155,-0.8098 11.61972,-0.035 8.97887,2.3944 15.56338,8.8733 17.99296,17.7465 0.98591,3.5916 0.98591,8.7676 0,12.2535 -0.88028,3.0986 -0.70423,3.4155 0.28169,0.4578 2.25352,-6.9014 1.76056,-13.4859 -1.5493,-20.2113 -2.64084,-5.3873 -7.67606,-10.0704 -13.27465,-12.3239 -4.43662,-1.831 -10.70422,-2.3944 -15.24648,-1.3733 z"
         id="path10395" />
      <g
         id="g10475">
        <path
           id="path10397"
           d="m 667.65785,1688.8803 c -9.33099,1.7606 -14.82395,8.8028 -14.82395,19.0141 0,9.6479 5,16.0564 13.94367,17.9578 4.36619,0.9155 11.33802,0.5633 16.65493,-0.8803 l 1.44366,-0.3873 0,-9.824 0,-9.8591 -7.39437,0 -7.39437,0 0,2.8169 0,2.8169 3.87324,0 3.87324,0 0,4.7183 c 0,5.3169 0.21127,4.9648 -3.09859,5.3521 -5.66901,0.6338 -10.66901,-2.1127 -13.06338,-7.2183 -0.80986,-1.7606 -0.91549,-2.3944 -0.91549,-5.8451 0,-3.4507 0.10563,-4.0845 0.9507,-5.8803 1.30282,-2.7817 3.38028,-4.9296 6.02113,-6.1267 2.04225,-0.9507 2.46479,-1.0212 6.58451,-0.986 3.52112,0 4.85915,0.1761 6.69014,0.7747 1.23239,0.4225 2.28873,0.7042 2.32394,0.669 0.0352,-0.035 0.14085,-1.4437 0.28169,-3.1338 l 0.24648,-3.0282 -2.57042,-0.5986 c -3.55634,-0.8098 -10.35212,-0.9859 -13.62676,-0.3521 z"
           inkscape:connector-curvature="0"
           style="fill:#296093;fill-opacity:1;stroke:none" />
        <path
           id="path10399"
           d="m 692.62264,1707.3662 0,18.3099 3.69718,0 3.69718,0 0,-7.9225 0,-7.9226 6.16198,0 6.16197,0 0,-2.9929 0,-2.993 -6.16197,0 -6.19719,0 0.10564,-4.507 0.10563,-4.4719 6.44366,-0.1056 6.40845,-0.07 0,-2.8169 0,-2.8169 -10.21126,0 -10.21127,0 0,18.3098 z"
           inkscape:connector-curvature="0"
           style="fill:#296093;fill-opacity:1;stroke:none" />
        <path
           id="path10401"
           d="m 719.03109,1707.3662 0,18.3099 7.39437,0 c 8.30986,0 11.44366,-0.4577 14.96479,-2.1127 4.0845,-1.9366 6.61972,-4.8943 8.02817,-9.331 0.6338,-2.0422 0.77464,-3.2746 0.73943,-7.0422 0,-4.0141 -0.10563,-4.8944 -0.91549,-7.1127 -1.58451,-4.4718 -4.08451,-7.1127 -8.59155,-9.1197 -3.1338,-1.3732 -7.21831,-1.9014 -14.78873,-1.9014 l -6.83099,0 0,18.3098 z m 15.77465,-11.6901 c 5.14084,1.9718 8.16901,7.0423 7.71127,12.8169 -0.38733,4.7183 -2.95775,8.4507 -7.11268,10.3873 -1.72535,0.7747 -2.74648,0.9859 -5.52817,1.0916 l -3.4507,0.1408 0,-12.7465 0,-12.7816 3.27464,0.2112 c 1.97184,0.1057 3.97888,0.4578 5.10564,0.8803 z"
           inkscape:connector-curvature="0"
           style="fill:#296093;fill-opacity:1;stroke:none" />
        <path
           id="path10403"
           d="m 756.35504,1707.3662 0,18.3099 3.69718,0 3.69718,0 0,-7.5704 0,-7.5704 2.04226,0 c 3.7676,0 4.26056,0.5986 7.46479,9.0845 l 2.28873,6.0563 4.15493,0 c 2.25352,0 4.11972,-0.07 4.11972,-0.1056 0,-0.071 -1.33803,-3.4507 -2.99296,-7.5 -3.16902,-7.6761 -4.0493,-9.331 -5.38733,-10.0705 -0.77464,-0.3873 -0.73943,-0.4225 0.95071,-1.0563 2.1831,-0.8451 4.33098,-3.169 4.96479,-5.3873 0.59859,-2.0775 0.28169,-5.6338 -0.63381,-7.3944 -2.07746,-4.0845 -5.52816,-5.1056 -17.21831,-5.1056 l -7.14788,0 0,18.3098 z m 14.92957,-11.8309 c 1.58451,0.669 2.39437,1.7605 2.57043,3.4859 0.42253,3.6267 -1.79578,5.4225 -6.93662,5.5986 l -2.99296,0.1056 -0.10563,-4.5423 c -0.0352,-2.5352 0,-4.7887 0.10563,-5.0704 0.14084,-0.4225 0.73944,-0.4577 3.23944,-0.2817 1.69014,0.1409 3.55633,0.4578 4.11971,0.7043 z"
           inkscape:connector-curvature="0"
           style="fill:#296093;fill-opacity:1;stroke:none" />
        <path
           id="path10405"
           d="m 788.7494,1707.3662 0,18.3099 3.69719,0 3.69718,0 0,-7.5704 0,-7.5704 1.8662,0 c 1.02113,0 2.35915,0.2816 3.06338,0.6338 1.33803,0.669 1.72535,1.4436 5.10563,10.176 l 1.65493,4.331 4.15493,0 4.11972,0 -3.09859,-7.6408 c -3.20423,-7.7465 -4.29578,-9.7184 -5.66902,-10.1761 -0.66901,-0.2113 -0.59859,-0.2817 0.56339,-0.669 4.01408,-1.4085 5.84507,-4.0493 5.84507,-8.5211 -0.0352,-4.1902 -1.40845,-6.5845 -4.75353,-8.1691 -2.35915,-1.0915 -5.35211,-1.4436 -13.09859,-1.4436 l -7.14789,0 0,18.3098 z m 14.96479,-11.6549 c 1.97184,0.8803 2.92254,3.0282 2.32395,5.2113 -0.66902,2.4648 -2.42958,3.4155 -7.00704,3.8028 l -2.88733,0.2817 0,-5.2113 0,-5.2112 3.02817,0.2464 c 1.72535,0.1057 3.69718,0.493 4.54225,0.8803 z"
           inkscape:connector-curvature="0"
           style="fill:#296093;fill-opacity:1;stroke:none" />
      </g>
      <path
         style="fill:#296093;fill-opacity:1;stroke:none"
         inkscape:connector-curvature="0"
         d="m 621.56629,1695.1479 c 5.70423,2.4296 10.45775,8.1338 11.93662,14.331 0.73944,3.1338 0.52817,7.4648 -0.52816,10.8099 -4.85916,15.0704 -24.15494,19.2605 -34.75353,7.5352 -3.1338,-3.4507 -5.21127,-8.4507 -5.24648,-12.7113 -0.0352,-1.338 -0.0704,-1.4788 -0.42253,-0.9155 -0.45775,0.8099 -0.10564,5.0705 0.6338,7.6761 2.14789,7.2887 8.48592,13.3803 15.80986,15.2465 2.71127,0.7042 8.1338,0.669 10.88028,-0.035 7.85212,-2.0071 14.22536,-8.486 16.05634,-16.3029 0.63381,-2.6408 0.56338,-7.8521 -0.10563,-10.4929 -1.16197,-4.4014 -3.94366,-8.7676 -7.53521,-11.7606 -1.79578,-1.4789 -5.88029,-3.6267 -7.67606,-4.0141 -0.56338,-0.1056 -0.14084,0.1761 0.9507,0.6338 z"
         id="path10407" />
      <path
         style="fill:#296093;fill-opacity:1;stroke:none"
         inkscape:connector-curvature="0"
         d="m 606.42545,1695.9226 c -6.09155,1.6901 -10.88028,6.1267 -12.78169,11.7253 -0.70423,2.1479 -0.80986,4.5775 -0.14085,4.7536 0.17606,0.035 0.45775,-0.6338 0.59859,-1.5141 0.31691,-2.324 1.16198,-4.331 2.60564,-6.5141 4.08451,-6.162 11.97183,-9.3662 19.15493,-7.7465 4.33098,0.9859 4.96479,0.9507 2.46479,-0.035 -2.88733,-1.1972 -8.87324,-1.5141 -11.90141,-0.669 z"
         id="path10409" />
      <path
         style="fill:#296093;fill-opacity:1;stroke:none"
         inkscape:connector-curvature="0"
         d="m 611.63672,1698.3169 c -0.52817,0.2817 -1.69014,0.5986 -2.64085,0.7043 -0.91549,0.1408 -2.39437,0.6338 -3.23944,1.0915 -1.61971,0.9155 -1.72535,0.9155 -1.12676,-0.176 0.35212,-0.669 0.31691,-0.669 -0.35211,-0.3169 -0.38732,0.2112 -0.98591,0.8802 -1.30282,1.4788 -0.3169,0.5986 -1.02112,1.4789 -1.5845,1.9719 -0.59859,0.4577 -1.30282,1.338 -1.61972,1.9718 l -0.52817,1.0915 1.19718,-1.1619 c 1.47888,-1.4085 2.04226,-1.4437 2.04226,-0.07 0,0.5985 0.24647,1.6549 0.52817,2.3591 0.52816,1.2324 0.49295,1.338 -0.42254,2.6409 -0.56338,0.7394 -1.47887,2.1831 -2.11268,3.169 l -1.12676,1.831 -0.91549,-2.0423 c -0.49296,-1.1268 -1.05634,-2.6408 -1.23239,-3.3451 -0.28169,-1.0563 -0.31691,-0.8802 -0.21127,1.1972 0.0704,1.7958 0.35211,2.9578 1.02112,4.2606 0.77465,1.5493 0.88029,2.007 0.5986,2.9929 -0.42254,1.4437 -0.45775,4.8944 -0.0704,4.8944 0.14085,0 0.49296,-0.9507 0.70423,-2.1127 0.24648,-1.1619 0.52817,-2.1126 0.6338,-2.1126 0.10564,0 0.59859,0.4929 1.09155,1.0563 0.49296,0.5986 1.90141,1.7958 3.1338,2.676 1.2324,0.8803 2.25353,1.6902 2.25353,1.831 0,0.1057 -0.17606,1.1972 -0.38733,2.3944 l -0.38732,2.2183 -1.09155,-0.5282 c -0.6338,-0.3169 -1.97183,-1.1971 -2.95775,-1.9366 -2.04225,-1.5141 -2.32394,-1.4084 -1.02113,0.3521 0.98592,1.3028 2.60564,2.6057 4.08451,3.2043 0.56338,0.2464 1.05634,0.7394 1.12676,1.1619 0.10564,0.8451 0.98592,1.2676 0.98592,0.493 0,-0.4225 0.24648,-0.4578 1.33803,-0.2113 1.5845,0.3521 4.6831,0.3873 6.5845,0 1.30282,-0.2465 1.19719,-0.2817 -1.40845,-0.5281 -3.20422,-0.317 -5.73943,-0.8451 -6.02112,-1.3029 -0.24648,-0.3873 0.17605,-3.9436 0.52817,-4.507 0.21126,-0.3169 0.73943,-0.2817 2.25352,0.1056 1.09155,0.2817 3.09859,0.6338 4.47183,0.7747 2.07746,0.2112 2.46479,0.1408 2.46479,-0.3169 0,-0.5986 -1.72536,-1.3028 -3.16902,-1.3028 -0.56338,0 -2.04225,-0.3169 -3.30986,-0.7395 -2.67605,-0.8098 -2.60563,-0.3521 -0.84507,-4.9648 0.56338,-1.5141 1.16197,-2.8169 1.30282,-2.8873 0.14084,-0.1056 1.26761,0.1408 2.46479,0.493 1.37324,0.4225 3.23944,0.7042 4.82394,0.7042 2.32395,0 2.60564,0.07 2.60564,0.669 0,1.1268 -1.76057,6.0563 -3.16902,8.9789 -1.16197,2.3591 -1.23239,2.6408 -0.52817,1.9718 1.19719,-1.1268 3.13381,-4.9648 4.3662,-8.6268 l 1.05634,-3.1338 2.21831,-0.5985 c 1.19718,-0.3522 2.28873,-0.5634 2.35915,-0.4578 0.28169,0.2817 -1.30281,5.6338 -2.28873,7.7465 -0.56338,1.1267 -1.05634,2.2183 -1.12676,2.4296 -0.10563,0.176 0.28169,-0.071 0.84507,-0.5634 1.09155,-1.0211 3.27465,-2.2183 3.52113,-1.9719 0.35211,0.3522 -2.85211,3.9085 -4.89437,5.4226 -2.46479,1.831 -4.40141,2.7817 -7.46479,3.662 -1.93662,0.5633 -2.00704,0.6338 -0.84507,0.6338 1.97183,0.035 5.59859,-1.1972 7.92254,-2.7113 3.7676,-2.4648 7.35915,-6.831 8.41549,-10.2465 0.24648,-0.8098 0.17606,-0.7746 -0.91549,0.2465 -1.09155,1.0211 -3.83803,2.6408 -4.08451,2.4296 -0.0352,-0.071 0.28169,-1.0564 0.73944,-2.1831 0.45774,-1.162 1.05634,-3.0634 1.30281,-4.2254 0.24648,-1.2324 0.73944,-2.3239 1.09155,-2.5704 0.80986,-0.5986 2.1831,-3.2394 1.83099,-3.5211 -0.14085,-0.1409 -0.3169,-0.035 -0.42254,0.2464 -0.0704,0.2465 -0.59859,0.9508 -1.12676,1.5493 l -0.9507,1.0916 -0.28169,-1.7254 c -0.24648,-1.7605 -1.47887,-4.6126 -1.83099,-4.2957 -0.0704,0.1056 0,0.4929 0.17606,0.845 0.56338,1.0212 1.19718,4.6127 0.9507,5.3521 -0.21126,0.6691 -1.86619,1.5141 -3.94366,1.9719 l -1.16197,0.2465 0,-3.5212 c 0,-3.4507 0.0352,-3.5211 0.98592,-4.1197 1.61971,-1.0211 2.18309,-1.9718 2.14788,-3.6972 l -0.0352,-1.5845 -0.35211,1.2324 c -0.59859,2.1127 -3.09859,4.1902 -3.09859,2.5352 0,-0.7746 -1.5493,-4.1197 -2.07747,-4.4366 -0.21127,-0.1408 -0.0704,0.4578 0.28169,1.2676 1.02113,2.3592 1.2324,3.838 0.70423,4.1902 -0.66902,0.4225 -3.16902,0.3873 -4.47183,-0.071 l -1.09155,-0.3873 1.05634,-2.1127 c 1.51408,-2.9929 1.09154,-3.3098 -0.66902,-0.4929 -1.30282,2.007 -1.58451,2.2887 -2.14789,1.9718 -0.84507,-0.4225 -2.85211,-2.4296 -2.85211,-2.7817 0,-0.2465 2.8169,-1.6197 4.57747,-2.2535 1.2676,-0.4578 -0.66902,-0.2113 -2.32395,0.2817 -2.42958,0.7394 -2.67605,0.7042 -2.39436,-0.4578 0.3169,-1.3028 0.49295,-1.4436 2.28873,-1.7957 1.16197,-0.2465 1.30282,-0.3169 0.52817,-0.3521 -0.73944,-0.035 -0.95071,-0.1761 -0.77465,-0.5634 0.24648,-0.6338 -0.0352,-0.669 -1.19718,-0.071 z m -1.97183,3.2043 c -0.21127,1.5493 -0.42254,1.831 -2.74648,3.7676 l -2.5,2.0774 -0.42254,-0.9859 c -0.24648,-0.5281 -0.42253,-1.5845 -0.42253,-2.3591 -0.0352,-1.2324 0.14084,-1.5141 1.23239,-2.2535 1.12676,-0.7747 4.75352,-2.2184 4.96479,-2.0071 0.0704,0.07 0,0.8451 -0.10563,1.7606 z m 3.73239,6.4084 c 0,0.6338 -2.99296,5.0704 -3.41549,5.0704 -0.59859,0 -4.6831,-3.8028 -4.6831,-4.3661 0,-0.4578 2.5,-2.9578 3.7676,-3.8029 0.73944,-0.4929 0.88029,-0.4225 2.57043,1.1972 0.9507,0.9155 1.76056,1.7958 1.76056,1.9014 z m 5.66901,0.8451 c 2.74648,0 2.64085,-0.1761 2.46479,3.6972 -0.14084,3.2042 0,3.0986 -3.87324,2.9225 -1.93662,-0.1056 -3.94366,-0.4225 -4.71831,-0.7394 l -1.33802,-0.5634 0.77464,-1.5141 c 0.42254,-0.8451 1.16197,-2.1831 1.61972,-2.9929 0.77465,-1.3381 0.95071,-1.4437 1.72535,-1.162 0.49296,0.2113 2.00705,0.3521 3.34507,0.3521 z m -10.52817,5.1056 c 0.95071,0.5986 0.95071,0.5986 0.38733,1.6902 -0.3169,0.6338 -0.91549,2.2183 -1.37324,3.5915 -0.42254,1.338 -0.95071,2.5 -1.12676,2.5704 -0.56338,0.1761 -5.70423,-4.8591 -5.70423,-5.5633 0,-0.7395 1.44366,-3.5212 2.71127,-5.1409 l 0.91549,-1.2324 1.61972,1.7254 c 0.88028,0.9507 2.04226,2.007 2.57042,2.3591 z"
         id="path10411" />
      <text
         xml:space="preserve"
         style="font-size:22.88952446px;font-style:normal;font-variant:normal;font-weight:normal;font-stretch:normal;line-height:125%;letter-spacing:0px;word-spacing:0px;fill:#296093;fill-opacity:1;stroke:none;font-family:Sans;-inkscape-font-specification:Helvetica"
         x="651.73218"
         y="1737.5588"
         id="text10461"
         sodipodi:linespacing="125%"><tspan
           sodipodi:role="line"
           id="tspan10463"
           x="651.73218"
           y="1737.5588"
           style="font-size:7.4390955px;font-style:normal;font-variant:normal;font-weight:600;font-stretch:normal;fill:#296093;fill-opacity:1;font-family:Myriad Pro;-inkscape-font-specification:Myriad Pro Semi-Bold">Global Facility for Disaster Reduction and Recovery </tspan></text>
    </g>
    <g
       transform="matrix(0.81818182,0,0,0.81818182,-573.71649,-579.62458)"
       id="g15790">
      <text
         xml:space="preserve"
         style="font-size:19px;font-style:normal;font-variant:normal;font-weight:normal;font-stretch:normal;text-indent:0;text-align:start;text-decoration:none;line-height:100%;letter-spacing:normal;word-spacing:normal;text-transform:none;direction:ltr;block-progression:tb;writing-mode:lr-tb;text-anchor:start;fill:#296093;fill-opacity:1;fill-rule:nonzero;stroke:none;stroke-width:1;marker:none;visibility:visible;display:inline;overflow:visible;enable-background:accumulate;font-family:Univers LT Std;-inkscape-font-specification:Univers LT Std"
         x="763.20898"
         y="1784"
         id="text2713"
         sodipodi:linespacing="100%"><tspan
           sodipodi:role="line"
           id="tspan2715"
           x="763.20898"
           y="1784"
           style="font-size:19px;font-style:normal;font-variant:normal;font-weight:normal;font-stretch:normal;text-align:start;line-height:100%;writing-mode:lr-tb;text-anchor:start;fill:#296093;fill-opacity:1;font-family:Univers LT Std;-inkscape-font-specification:Univers LT Std">THE WORLD BANK</tspan></text>
      <path
         style="fill:#296093;fill-opacity:1;fill-rule:nonzero;stroke:none;display:inline"
         d="m 728.69584,1750 c -15.1869,0 -27.4868,12.2999 -27.4868,27.4868 0,15.1869 12.2999,27.5132 27.4868,27.5132 15.1868,0 27.5131,-12.3263 27.5131,-27.5132 0,-15.1869 -12.3263,-27.4868 -27.5131,-27.4868 z m 0,3.1655 c 13.4353,0 24.3477,10.885 24.3477,24.3213 0,13.4343 -10.9124,24.3213 -24.3477,24.3213 -13.4353,0 -24.3214,-10.887 -24.3214,-24.3213 0,-13.4363 10.8861,-24.3213 24.3214,-24.3213 z m -1.7938,3.4556 c -0.055,0 -0.1055,0.026 -0.1055,0.026 -0.2511,0.1678 -0.3166,0.2374 -0.3166,0.2374 -2.6748,2.7149 -4.8146,5.9331 -6.2781,9.5228 2.297,0.6805 4.7091,1.1058 7.2014,1.2134 l 0,-10.3141 c -0.0158,-0.6252 -0.3361,-0.6961 -0.5012,-0.6859 z m 3.6139,0 c -0.1651,-0.01 -0.4846,0.061 -0.5012,0.6859 l 0,10.3141 c 2.4923,-0.1076 4.9054,-0.5329 7.2014,-1.2134 -1.4635,-3.5897 -3.6276,-6.8079 -6.3045,-9.5228 -0.007,-0.01 -0.0524,-0.079 -0.2902,-0.2374 0,0 -0.0504,-0.023 -0.1055,-0.026 z m -8.4149,0.2374 c -0.1216,0 -0.2801,0.04 -0.4748,0.1055 -3.5063,1.1902 -6.5905,3.2721 -9.0216,5.9617 1.6039,1.0161 3.2963,1.9109 5.0912,2.6379 l 0.0263,0 c 1.1797,-2.8458 2.9017,-5.3824 4.59,-7.9137 0.1181,-0.1783 0.1582,-0.3429 0.1582,-0.3429 0.0562,-0.2153 -0.004,-0.4545 -0.3693,-0.4485 z m 13.2159,0 c -0.3637,-0.01 -0.4247,0.2332 -0.3693,0.4485 0,0 0.039,0.1646 0.1582,0.3429 1.6872,2.5313 3.4114,5.0679 4.59,7.9137 1.7948,-0.727 3.5126,-1.6218 5.1175,-2.6379 -2.4332,-2.6896 -5.5132,-4.7715 -9.0216,-5.9617 -0.1942,-0.066 -0.3536,-0.1035 -0.4748,-0.1055 z m -24.3478,8.0983 c -2.2706,3.2067 -3.7088,7.0453 -3.9568,11.2111 l 8.4149,0 c 0.1129,-2.8373 0.6172,-5.5786 1.4244,-8.1775 -2.0691,-0.8146 -4.0475,-1.8265 -5.8825,-3.0336 z m 35.4533,0 c -1.8349,1.2071 -3.787,2.219 -5.8561,3.0336 0.8061,2.5989 1.2841,5.3402 1.3981,8.1775 l 8.4148,0 c -0.2469,-4.1658 -1.6587,-8.0044 -3.9304,-11.2111 l -0.0264,0 z m -27.0911,3.9041 c -0.7123,2.3309 -1.1544,4.7704 -1.2662,7.307 l 9.3381,0.026 0,-5.988 c -2.7941,-0.1108 -5.5037,-0.5687 -8.0719,-1.3453 z m 18.7554,0 c -2.5683,0.7766 -5.279,1.2345 -8.072,1.3453 l 0,5.988 9.3381,-0.026 c -0.1118,-2.5366 -0.5539,-4.9761 -1.2661,-7.307 z m -31.0744,9.9449 c 0.248,4.1668 1.6862,8.0033 3.9568,11.211 1.835,-1.2061 3.8134,-2.219 5.8825,-3.0336 -0.8072,-2.5999 -1.3115,-5.3391 -1.4244,-8.1774 l -8.4149,0 z m 11.0528,0 c 0.1118,2.5376 0.5539,4.9782 1.2662,7.3069 2.5682,-0.7745 5.2778,-1.2345 8.0719,-1.3453 l 0,-5.9616 -9.3381,0 z m 11.9496,0 0,5.9616 c 2.793,0.1108 5.5037,0.5708 8.072,1.3453 0.7122,-2.3287 1.1543,-4.7693 1.2661,-7.3069 l -9.3381,0 z m 11.9497,0 c -0.114,2.8383 -0.592,5.5775 -1.3981,8.1774 2.0691,0.8146 4.0212,1.8275 5.8561,3.0336 l 0.0264,0 c 2.2717,-3.2077 3.6835,-7.0442 3.9304,-11.211 l -8.4148,0 z m -14.5612,8.5467 c -2.4923,0.1076 -4.9044,0.5329 -7.2014,1.2134 1.4635,3.5886 3.6033,6.81 6.2781,9.5228 0,0 0.0655,0.096 0.3166,0.2638 0,0 0.5856,0.1731 0.6067,-0.6595 l 0,-10.3405 z m 2.6115,0 0,10.3405 c 0.0222,0.8326 0.6067,0.6595 0.6067,0.6595 0.2388,-0.1595 0.2838,-0.2555 0.2902,-0.2638 2.6769,-2.7128 4.841,-5.9342 6.3045,-9.5228 -2.296,-0.6805 -4.7091,-1.1058 -7.2014,-1.2134 z m -12.3189,2.0839 c -1.7949,0.7271 -3.4873,1.5944 -5.0912,2.6116 2.4311,2.6906 5.5153,4.7978 9.0216,5.988 0.7787,0.2627 0.9191,-0.082 0.8441,-0.3693 0,0 -0.0401,-0.1372 -0.1582,-0.3166 -1.6883,-2.5303 -3.4103,-5.0668 -4.59,-7.9137 l -0.0263,0 z m 22,0 c -1.1786,2.8469 -2.9028,5.3835 -4.59,7.9137 -0.1192,0.1794 -0.1582,0.3166 -0.1582,0.3166 -0.0739,0.287 0.0675,0.632 0.8441,0.3693 3.5084,-1.1902 6.5884,-3.2974 9.0216,-5.988 -1.6049,-1.0172 -3.3227,-1.8845 -5.1175,-2.6116 z"
         id="path2476"
         inkscape:connector-curvature="0" />
      <text
         xml:space="preserve"
         style="font-size:10px;font-style:normal;font-variant:normal;font-weight:normal;font-stretch:normal;text-indent:0;text-align:start;text-decoration:none;line-height:100%;letter-spacing:normal;word-spacing:normal;text-transform:none;direction:ltr;block-progression:tb;writing-mode:lr-tb;text-anchor:start;fill:#296093;fill-opacity:1;fill-rule:nonzero;stroke:none;stroke-width:1;marker:none;visibility:visible;display:inline;overflow:visible;enable-background:accumulate;font-family:Univers LT Std;-inkscape-font-specification:Univers LT Std"
         x="764.94043"
         y="1796.6484"
         id="text2733"
         sodipodi:linespacing="100%"><tspan
           sodipodi:role="line"
           id="tspan2735"
           x="764.94043"
           y="1796.6484">Working for a World Free of Poverty</tspan></text>
    </g>
    <rect
       style="color:#000000;fill:#5fbcd3;fill-opacity:1;fill-rule:nonzero;stroke:none;stroke-width:2;marker:none;visibility:visible;display:inline;overflow:visible;enable-background:accumulate"
       id="rect21033"
       width="103"
       height="60"
       x="-149.69597"
       y="901.42444" />
    <path
       sodipodi:nodetypes="ccccccc"
       inkscape:connector-curvature="0"
       id="path21598"
       d="m 20,957.36218 11,0 24,-25 -24,-25 -11,0 25,25 z"
       style="fill:#ffffff;fill-opacity:1;stroke:none;display:inline" />
    <path
       style="fill:#ffffff;fill-opacity:1;stroke:none;display:inline"
       d="m 130,957.36218 -11,0 -24,-25 24,-25 11,0 -25,25 z"
       id="path21618"
       inkscape:connector-curvature="0"
       sodipodi:nodetypes="ccccccc" />
  </g>
</svg>
